<?xml version="1.0" encoding="utf-8"?>
<!-- Generator: Adobe Illustrator 18.0.0, SVG Export Plug-In . SVG Version: 6.00 Build 0)  -->
<!DOCTYPE svg PUBLIC "-//W3C//DTD SVG 1.1//EN" "http://www.w3.org/Graphics/SVG/1.1/DTD/svg11.dtd">
<svg version="1.1" id="Capa_1" xmlns="http://www.w3.org/2000/svg" xmlns:xlink="http://www.w3.org/1999/xlink" x="0px" y="0px"
	 viewBox="0 0 21.7 21.7" enable-background="new 0 0 21.7 21.7" xml:space="preserve">
<ellipse fill="#3E82BC" cx="10.5" cy="11.4" rx="6.7" ry="7.1"/>
<g>
	<path fill="#FFFFFF" d="M7.8,9.4c0.1-0.4,0.5-0.8,0.9-0.8c0.1,0,0.1,0.1,0.1,0.1c0,0.1-0.1,0.1-0.1,0.1C8.5,8.9,8.2,9,8.1,9.3
		c0.1,0,0.2,0,0.3,0c0.4,0,0.8,0.1,1.1,0.3c0.2-0.1,0.4-0.2,0.6-0.3c0.3-0.1,0.6-0.1,0.8,0c0.2,0,0.4,0.1,0.5,0.2
		c0-0.5,0.4-0.9,1-0.9c0.1,0,0.1,0.1,0.1,0.1c0,0.1-0.1,0.1-0.1,0.1c-0.4,0-0.6,0.3-0.7,0.6c0.3-0.2,0.6-0.2,0.9-0.2
		c0.4,0,0.7,0.1,1,0.3c0-0.8-0.6-1.4-1.4-1.4c-0.2,0-0.3,0-0.4,0.1c-0.1-0.6-0.7-1-1.3-1c-0.6,0-1.2,0.4-1.3,1
		c-0.1,0-0.3-0.1-0.4-0.1C8,8.2,7.4,8.8,7.4,9.6l0,0C7.5,9.5,7.6,9.4,7.8,9.4z M10.6,7.6c0.1,0,0.1,0.1,0.1,0.1s-0.1,0.1-0.1,0.1
		c-0.4,0-0.7,0.3-0.7,0.7c0,0.1,0,0.1-0.1,0.1c0,0,0,0-0.1,0c-0.1,0-0.1-0.1-0.1-0.1c0,0,0,0,0,0C9.6,8,10,7.6,10.6,7.6z"/>
	<path fill="#FFFFFF" d="M7.3,11.1C7.3,11.1,7.3,11.1,7.3,11.1c0.3,0,0.5-0.1,0.7-0.3l0.1-0.1c0.1-0.1,0.4-0.1,0.5,0
		c0.2,0.2,0.5,0.3,0.8,0.3c0,0,0,0,0,0c0.3,0,0.6-0.1,0.8-0.3l0,0c0.1-0.1,0.3-0.1,0.5,0l0,0c0.2,0.2,0.5,0.3,0.8,0.3c0,0,0,0,0,0
		c0.3,0,0.6-0.1,0.8-0.3c0.1-0.1,0.4-0.1,0.5,0l0,0c0.2,0.2,0.5,0.3,0.8,0.3c0.3,0,0.6-0.1,0.8-0.3c0.2-0.2,0.2-0.4,0-0.6
		c-0.2-0.2-0.4-0.2-0.6,0c-0.1,0.1-0.3,0.1-0.4,0l0,0C13.3,10,13,9.8,12.7,9.8c-0.3,0-0.6,0.1-0.9,0.4c-0.1,0.1-0.1,0.1-0.2,0.1
		c-0.1,0-0.1,0-0.2-0.1l0,0c-0.5-0.5-1.2-0.5-1.7,0l0,0c-0.1,0-0.1,0.1-0.2,0.1c0,0,0,0,0,0c-0.1,0-0.2,0-0.2-0.1
		C9,10,8.7,9.8,8.4,9.8c-0.3,0-0.6,0.1-0.8,0.3l-0.1,0.1c-0.1,0.1-0.1,0.1-0.2,0.1c-0.1,0-0.2,0-0.2-0.1C7,10,6.7,10,6.5,10.2
		c-0.2,0.2-0.2,0.4,0,0.6C6.7,11,7,11.1,7.3,11.1z"/>
	<path fill="#FFFFFF" d="M14.8,11.8c-0.1-0.1-0.1-0.1-0.2-0.1h-0.7h-0.3h-1.9h-0.2H9.6H9.4H7.5H7.2H6.5c-0.1,0-0.2,0-0.2,0.1
		c-0.1,0.1-0.1,0.2-0.1,0.2c0.2,1.2,1.2,2.7,2.7,3.4c0.1,0.1,0.3,0.1,0.5,0.1h2.4c0.2,0,0.3,0,0.5-0.1c1.4-0.7,2.5-2.1,2.7-3.4
		C14.9,12,14.8,11.9,14.8,11.8z"/>
</g>
</svg>
