<?xml version="1.0" encoding="utf-8"?>
<!-- Generator: Adobe Illustrator 18.0.0, SVG Export Plug-In . SVG Version: 6.00 Build 0)  -->
<!DOCTYPE svg PUBLIC "-//W3C//DTD SVG 1.1//EN" "http://www.w3.org/Graphics/SVG/1.1/DTD/svg11.dtd">
<svg version="1.1" id="Capa_1" xmlns="http://www.w3.org/2000/svg" xmlns:xlink="http://www.w3.org/1999/xlink" x="0px" y="0px"
	 viewBox="0 0 21.7 21.7" enable-background="new 0 0 21.7 21.7" xml:space="preserve">
<g>
	<ellipse fill="#3E82BC" cx="10.6" cy="11.4" rx="6.7" ry="7.1"/>
	<g>
		<g>
			<path fill="#FFFFFF" d="M7.4,15.3h1.2c0,0.1,0.1,0.2,0.2,0.2h2.7c0.1,0,0.2-0.1,0.2-0.2h1.2c0.2,0,0.4-0.2,0.4-0.4H7.1
				C7.1,15.2,7.2,15.3,7.4,15.3z"/>
			<path fill="#FFFFFF" d="M14.6,11.6c-0.3-0.2-0.7-0.2-1-0.2c0-0.2,0-0.4,0-0.6H6.3c0,2,0.3,3.4,2.2,3.9h2.9c0.7-0.2,1.2-0.6,1.6-1
				c0.7,0,1.9-0.3,1.9-1.3C15,12,14.8,11.8,14.6,11.6z M13.3,13.2c0.1-0.4,0.2-0.8,0.3-1.2c0.2,0,0.5-0.1,0.7,0.1
				c0,0,0.1,0.1,0.1,0.4C14.4,12.9,13.7,13.1,13.3,13.2z"/>
			<path fill="#FFFFFF" d="M9.3,10.5c0,0,1.4-0.1,0.8-1.3c-0.5-0.9-0.4-1.5,0.3-2c0,0-2.1,0.5-0.9,2.2C9.9,10.2,9.3,10.5,9.3,10.5z"
				/>
			<path fill="#FFFFFF" d="M10.2,10.4c0,0,1.1-0.2,0.5-1.1c-0.2-0.4,0.1-0.5,0.1-0.5s-0.7,0-0.4,0.6C10.7,9.9,10.6,10.2,10.2,10.4z"
				/>
		</g>
	</g>
</g>
</svg>
